<svg xmlns="http://www.w3.org/2000/svg" viewBox="0 0 187.5 187.57"><defs><style>.cls-1{fill:none;}.cls-1,.cls-2{stroke:#fff;stroke-miterlimit:10;}.cls-2{fill:#fff;}</style></defs><g id="Layer_2" data-name="Layer 2"><g id="Layer_1-2" data-name="Layer 1"><g id="Layer_2-2" data-name="Layer 2"><g id="Layer_1-2-2" data-name="Layer 1-2"><path class="cls-1" d="M138.82,132.73a.91.91,0,0,1,1,0c7.44,5.37,15.76,6.2,22.25,2.22a15.79,15.79,0,0,0,6-6.52,14.9,14.9,0,0,0,1.31-8.89c-.72-4.63-3.53-9.08-8.13-12.89-5.48-4.54-13.3-8.08-23.24-10.52a.9.9,0,0,1-.7-1c1.73-14.63.3-27.62-4.23-38.6a47.8,47.8,0,0,0-18.44-22.46,41.38,41.38,0,0,0-21.41-6.44h0a41.43,41.43,0,0,0-21,6.65A47.89,47.89,0,0,0,54.07,56.94c-4.42,11-5.71,24-3.83,38.64a.92.92,0,0,1-.69,1c-9.92,2.54-17.7,6.16-23.14,10.76-4.56,3.85-7.32,8.34-8,13a15,15,0,0,0,1.4,8.87,15.83,15.83,0,0,0,6,6.46c6.54,3.92,14.85,3,22.23-2.44a1,1,0,0,1,1,0,.92.92,0,0,1,.46.9c0,.2-1.91,18.6-2.48,38.71a91.55,91.55,0,0,0,94.19-.48c-.77-20.09-2.85-38.46-2.87-38.66A.94.94,0,0,1,138.82,132.73ZM30.48,115.65c-2,2.4-2.81,3.71-3.48,3.81a3.24,3.24,0,0,1-3.36-2.16c-.48-1.91,2-3.85,3.95-4.37,1.57-.41,3.62-.13,3.93.75C31.67,114.07,31.36,114.58,30.48,115.65Zm42.09-64a43.08,43.08,0,0,1-3.46,7.68c-2.77,4.41-5.85,9.29-7.37,8.75-2.35-.84-2.18-15,4.95-19.17,2.07-1.21,5.55-2,6.48-.85C73.62,48.64,73.37,49.55,72.57,51.65ZM81,41.78a6.66,6.66,0,0,1-3,2.7c-2.72,1.24-6.65,1.12-7.23-.34s2.23-3.93,4.39-5.07,5.51-2.12,6.49-.84C82.47,39.27,81.22,41.47,81,41.78Z"/><path class="cls-1" d="M36.12,139.85a18.91,18.91,0,0,1-11.24-2.61,17.61,17.61,0,0,1-6.73-7.17,16.76,16.76,0,0,1-1.57-10c.74-5.09,3.72-10,8.63-14.12C30.72,101.3,38.48,97.62,48.3,95c-1.77-14.6-.4-27.64,4.05-38.75a49.71,49.71,0,0,1,18.9-23.59,43.22,43.22,0,0,1,22.34-7h0a43.15,43.15,0,0,1,22,6.72,49.75,49.75,0,0,1,19.14,23.39c4.56,11.07,6.06,24.09,4.44,38.72,9.84,2.5,17.64,6.09,23.2,10.69,5,4.1,8,9,8.78,14a16.9,16.9,0,0,1-1.48,10,17.55,17.55,0,0,1-6.66,7.29,18.93,18.93,0,0,1-11.2,2.72,24.19,24.19,0,0,1-11.42-3.88c.54,5.19,2,19.84,2.62,35.75a91.75,91.75,0,1,0-97.82.5c.49-15.93,1.77-30.61,2.27-35.8A24.25,24.25,0,0,1,36.12,139.85Z"/><path class="cls-2" d="M47.05,172.77v1.71a92.49,92.49,0,0,0,40.42,12.37c.09-.14.17-.28.25-.43a.92.92,0,0,1,.83-.47l5.87.12h0l5.52-.18a.94.94,0,0,1,.83.46l.24.42A92.46,92.46,0,0,0,141.33,174a14,14,0,0,0-.07-1.71,91.55,91.55,0,0,1-94.19.48Z"/><path class="cls-2" d="M187,93.35a93.25,93.25,0,1,0-141.82,80v-1.73a91.77,91.77,0,1,1,97.82-.5,14.3,14.3,0,0,0,.07,1.73A93.26,93.26,0,0,0,187,93.35Z"/><path class="cls-2" d="M49.53,134.07a.92.92,0,0,0-.46-.9,1,1,0,0,0-1,0c-7.38,5.45-15.69,6.36-22.23,2.44a15.83,15.83,0,0,1-6-6.46,15,15,0,0,1-1.4-8.87c.68-4.63,3.44-9.12,8-13,5.44-4.6,13.22-8.22,23.14-10.76a.92.92,0,0,0,.69-1C48.39,80.9,49.68,67.9,54.1,56.88A47.92,47.92,0,0,1,72.25,34.22a41.43,41.43,0,0,1,21-6.65h0a41.34,41.34,0,0,1,21.39,6.5A47.84,47.84,0,0,1,133.05,56.6c4.53,11,6,24,4.23,38.6a.9.9,0,0,0,.7,1c9.94,2.44,17.76,6,23.24,10.52,4.6,3.81,7.41,8.26,8.13,12.89a14.89,14.89,0,0,1-1.35,8.86,15.79,15.79,0,0,1-6,6.52c-6.49,4-14.81,3.15-22.25-2.22a.94.94,0,0,0-1.3.23.88.88,0,0,0-.16.63c0,.2,2.1,18.57,2.87,38.66.61-.37,1.22-.74,1.81-1.13-.65-15.91-2.08-30.56-2.62-35.75a24.19,24.19,0,0,0,11.42,3.88,18.93,18.93,0,0,0,11.2-2.72,17.55,17.55,0,0,0,6.66-7.29,16.9,16.9,0,0,0,1.48-10c-.8-5.09-3.83-9.94-8.78-14-5.56-4.6-13.36-8.19-23.2-10.69,1.62-14.63.12-27.65-4.44-38.72a49.75,49.75,0,0,0-19.14-23.39,43.15,43.15,0,0,0-22-6.72h0a43.22,43.22,0,0,0-22.34,7,49.71,49.71,0,0,0-18.9,23.59c-4.41,11-5.78,24.05-4,38.65-9.82,2.6-17.58,6.28-23.09,10.93-4.91,4.15-7.89,9-8.63,14.12a16.76,16.76,0,0,0,1.57,10,17.61,17.61,0,0,0,6.73,7.22,18.91,18.91,0,0,0,11.24,2.61,24.23,24.23,0,0,0,11.38-4c-.5,5.19-1.78,19.87-2.27,35.8l1.82,1.11C47.62,152.66,49.51,134.26,49.53,134.07Z"/><path class="cls-2" d="M99.92,185.91l-5.52.16h0L88.53,186a.92.92,0,0,0-.83.47c-.08.15-.16.29-.25.43,2.25.16,4.52.24,6.79.22s4.54-.11,6.77-.28l-.24-.42A1,1,0,0,0,99.92,185.91Z"/><path class="cls-2" d="M141.24,172.29a14,14,0,0,0,.07,1.71c.61-.36,1.21-.73,1.81-1.11a14.3,14.3,0,0,0-.07-1.73C142.46,171.55,141.85,171.92,141.24,172.29Z"/><path class="cls-2" d="M47.05,172.77l-1.82-1.11v1.73c.6.37,1.21.73,1.83,1.09A8.88,8.88,0,0,1,47.05,172.77Z"/><path class="cls-2" d="M75.16,39.07c-2.16,1.17-5,3.65-4.42,5.1s4.51,1.58,7.23.34a6.63,6.63,0,0,0,3-2.73c.18-.31,1.43-2.51.61-3.58C80.67,36.92,77.25,37.9,75.16,39.07Z"/><path class="cls-2" d="M66.69,48.91c-7.13,4.16-7.3,18.33-4.95,19.16,1.52.54,4.6-4.34,7.37-8.75a43.08,43.08,0,0,0,3.46-7.68c.8-2.1,1.05-3,.6-3.59C72.24,46.87,68.76,47.7,66.69,48.91Z"/><path class="cls-2" d="M27.59,112.93c-2,.52-4.43,2.46-3.95,4.37A3.24,3.24,0,0,0,27,119.46c.67-.1,1.52-1.41,3.48-3.81.88-1.07,1.19-1.55,1-2C31.21,112.8,29.16,112.52,27.59,112.93Z"/></g></g></g></g></svg>